<svg width="115" height="29" fill="none" xmlns="http://www.w3.org/2000/svg"><path d="M11.89 22H.72V2.012h11.17v2.215H3.237v6.234h8.149v2.187h-8.15v7.137h8.655V22zm6.536 0h-2.461V.727h2.46V22zm11.142.273c-2.25 0-4.02-.679-5.304-2.037-1.276-1.367-1.914-3.245-1.914-5.633 0-2.406.597-4.32 1.79-5.742 1.195-1.43 2.808-2.146 4.84-2.146 1.887 0 3.391.61 4.512 1.832 1.121 1.212 1.682 2.857 1.682 4.935v1.49H24.893c.045 1.705.478 3 1.298 3.883.82.885 1.983 1.327 3.487 1.327.802 0 1.563-.069 2.283-.205.72-.146 1.563-.424 2.53-.834v2.16c-.83.355-1.61.606-2.339.752-.729.146-1.59.218-2.584.218zm-.615-13.548c-1.176 0-2.105.378-2.789 1.134-.684.757-1.09 1.81-1.217 3.159h7.643c-.018-1.404-.342-2.47-.97-3.2-.63-.729-1.518-1.093-2.667-1.093zm15.75 11.539c1.513 0 2.611-.406 3.295-1.217.693-.82 1.04-2.133 1.04-3.938v-.588c0-2.005-.347-3.463-1.04-4.375-.693-.911-1.81-1.367-3.35-1.367-1.257 0-2.233.502-2.925 1.504-.684.994-1.026 2.416-1.026 4.266 0 1.86.333 3.277.998 4.252.675.975 1.677 1.463 3.008 1.463zm4.307 1.6l.082-1.846h-.11c-1.011 1.503-2.56 2.255-4.648 2.255-1.941 0-3.459-.674-4.553-2.023-1.084-1.358-1.627-3.268-1.627-5.729 0-2.415.547-4.32 1.64-5.714 1.104-1.395 2.608-2.092 4.513-2.092 2.032 0 3.6.756 4.703 2.27h.15l.328-1.997h1.955v15.258c0 2.151-.546 3.769-1.64 4.854-1.085 1.084-2.776 1.627-5.072 1.627-2.188 0-3.988-.32-5.4-.957V25.5c1.457.784 3.303 1.176 5.536 1.176 1.276 0 2.283-.374 3.022-1.121.747-.748 1.12-1.782 1.12-3.104v-.588zM65.484 22l-.478-2.133h-.11c-.747.939-1.494 1.577-2.242 1.914-.738.328-1.672.492-2.802.492-1.477 0-2.635-.387-3.473-1.162-.839-.774-1.258-1.868-1.258-3.28 0-3.045 2.402-4.64 7.205-4.786l2.543-.096v-.889c0-1.139-.246-1.977-.738-2.515-.492-.547-1.28-.82-2.365-.82-.793 0-1.545.118-2.256.355a18.66 18.66 0 00-1.983.793l-.752-1.846a11.142 11.142 0 012.475-.943 10.698 10.698 0 012.652-.342c1.814 0 3.163.401 4.047 1.203.884.802 1.326 2.078 1.326 3.828V22h-1.79zm-5.072-1.709c1.376 0 2.456-.37 3.24-1.107.793-.748 1.19-1.805 1.19-3.172v-1.354l-2.215.096c-1.723.064-2.98.337-3.774.82-.783.483-1.175 1.244-1.175 2.283 0 .784.237 1.386.71 1.805.484.42 1.158.629 2.024.629zM82.164 22v-9.598c0-1.221-.273-2.128-.82-2.72-.538-.602-1.386-.903-2.543-.903-1.54 0-2.662.429-3.364 1.286-.692.847-1.039 2.232-1.039 4.156V22h-2.46V6.988h1.982l.37 2.051h.136c.465-.738 1.116-1.308 1.955-1.709.838-.41 1.763-.615 2.775-.615 1.841 0 3.209.446 4.102 1.34.893.893 1.34 2.283 1.34 4.17V22h-2.434zm13.098.273c-2.16 0-3.842-.66-5.045-1.982-1.203-1.33-1.805-3.236-1.805-5.715 0-2.516.606-4.452 1.819-5.81 1.22-1.368 2.957-2.051 5.209-2.051.729 0 1.449.077 2.16.232.72.146 1.312.338 1.777.574l-.752 2.051c-1.267-.474-2.347-.71-3.24-.71-1.513 0-2.63.478-3.35 1.435-.72.948-1.08 2.365-1.08 4.252 0 1.814.36 3.204 1.08 4.17.72.957 1.787 1.435 3.2 1.435 1.321 0 2.62-.291 3.896-.875v2.188c-1.04.538-2.329.806-3.87.806zm13.822 0c-2.251 0-4.02-.679-5.305-2.037-1.276-1.367-1.914-3.245-1.914-5.633 0-2.406.597-4.32 1.791-5.742 1.194-1.43 2.808-2.146 4.84-2.146 1.887 0 3.391.61 4.512 1.832 1.121 1.212 1.681 2.857 1.681 4.935v1.49h-10.281c.046 1.705.479 3 1.299 3.883.82.885 1.982 1.327 3.486 1.327.802 0 1.564-.069 2.284-.205.72-.146 1.563-.424 2.529-.834v2.16c-.83.355-1.609.606-2.338.752-.729.146-1.591.218-2.584.218zm-.615-13.548c-1.176 0-2.106.378-2.789 1.134-.684.757-1.09 1.81-1.217 3.159h7.642c-.018-1.404-.341-2.47-.97-3.2-.629-.729-1.518-1.093-2.666-1.093z" fill="#000"/></svg>